<svg width="24" height="24" viewBox="0 0 24 24" fill="none" xmlns="http://www.w3.org/2000/svg">
<path d="M13.544 10.456C12.7249 9.63723 11.6142 9.17728 10.456 9.17728C9.29785 9.17728 8.18711 9.63723 7.368 10.456L4.279 13.544C3.45988 14.3631 2.9997 15.4741 2.9997 16.6325C2.9997 17.7909 3.45988 18.9019 4.279 19.721C5.09812 20.5401 6.20909 21.0003 7.3675 21.0003C8.52591 21.0003 9.63688 20.5401 10.456 19.721L12 18.177" stroke="black" stroke-width="2" stroke-linecap="round" stroke-linejoin="round"/>
<path d="M10.456 13.544C11.2751 14.3628 12.3858 14.8227 13.544 14.8227C14.7022 14.8227 15.8129 14.3628 16.632 13.544L19.721 10.456C20.5401 9.63688 21.0003 8.52591 21.0003 7.3675C21.0003 6.20909 20.5401 5.09812 19.721 4.279C18.9019 3.45988 17.7909 2.9997 16.6325 2.9997C15.4741 2.9997 14.3631 3.45988 13.544 4.279L12 5.823" stroke="black" stroke-width="2" stroke-linecap="round" stroke-linejoin="round"/>
</svg>
